<svg xmlns="http://www.w3.org/2000/svg" width="26" height="25" viewBox="0 0 26 25"><defs><clipPath id="i9fga"><path fill="#fff" d="M8.673 24.764a8 8 0 0 1-8-8V8a8 8 0 0 1 8-8h8.764a8 8 0 0 1 8 8v8.764a8 8 0 0 1-8 8z"/></clipPath><clipPath id="i9fgb"><path fill="#fff" d="M7.638 12.382a5.417 5.417 0 1 1 10.834 0 5.417 5.417 0 0 1-10.834 0z"/></clipPath></defs><g><g><path fill="none" stroke="#1e1f1f" stroke-miterlimit="20" stroke-width="2" d="M8.673 24.764a8 8 0 0 1-8-8V8a8 8 0 0 1 8-8h8.764a8 8 0 0 1 8 8v8.764a8 8 0 0 1-8 8z" clip-path="url(&quot;#i9fga&quot;)"/></g><g><path fill="none" stroke="#1e1f1f" stroke-miterlimit="20" stroke-width="3" d="M7.638 12.382a5.417 5.417 0 1 1 10.834 0 5.417 5.417 0 0 1-10.834 0z" clip-path="url(&quot;#i9fgb&quot;)"/></g><g><path fill="#1e1f1f" d="M18.472 5.804a1.16 1.16 0 1 1 2.322 0 1.16 1.16 0 0 1-2.322 0z"/></g></g></svg>