<svg xmlns="http://www.w3.org/2000/svg" width="35" height="26" viewBox="0 0 35 26"><g><g><path fill="none" stroke="#1e1f1f" stroke-linecap="round" stroke-linejoin="round" stroke-miterlimit="20" d="M32.97 5.343a4.1 4.1 0 0 0-2.861-2.95c-2.537-.62-12.684-.62-12.684-.62v0s-10.148 0-12.685.679a4.1 4.1 0 0 0-2.86 2.95 42.771 42.771 0 0 0-.68 7.802c-.016 2.636.211 5.267.68 7.861a4.1 4.1 0 0 0 2.86 2.832c2.537.678 12.685.678 12.685.678v0s10.147 0 12.684-.678a4.1 4.1 0 0 0 2.861-2.95c.46-2.555.688-5.147.678-7.743a42.77 42.77 0 0 0-.678-7.861z"/></g><g><path fill="#1e1f1f" d="M14.105 18.027l8.48-4.823-8.48-4.823z"/></g></g></svg>